<svg width="20" height="16" viewBox="0 0 20 16" fill="none" xmlns="http://www.w3.org/2000/svg">
<path d="M10.6082 4.60048L14.305 8.09142M14.305 8.09142L10.4751 11.4358M14.305 8.09142L1.13315 7.83489M5.90395 4.50886L5.92059 3.65445C5.93383 2.97464 6.2439 2.32846 6.78259 1.85807C7.32128 1.38768 8.04447 1.13161 8.79305 1.14618L15.379 1.27445C16.1276 1.28902 16.8402 1.57306 17.3602 2.06407C17.8802 2.55508 18.1649 3.21284 18.1516 3.89265L17.9852 12.4368C17.972 13.1166 17.6619 13.7628 17.1232 14.2331C16.5845 14.7035 15.8613 14.9596 15.1128 14.945L8.52682 14.8168C7.77823 14.8022 7.06557 14.5182 6.5456 14.0271C6.02563 13.5361 5.74095 12.8784 5.75419 12.1986L5.77083 11.3442" stroke="#ABA8A8" stroke-width="2" stroke-linecap="round" stroke-linejoin="round"/>
</svg>
